# xmcd
#
# Track frame offsets:
#	150
#	25623
#	46704
#	69470
#	92767
#	111555
#	123441
#	148516
#	170964
#	209270
#	234643
#	261000
#	283192
#	306947
#	331198
#
# Disc length: 4680
#
# Revision: 1
# Processed by: cddbd v1.5.1PL0 Copyright (c) Steve Scherf et al.
# Submitted via: WhereIsIt 3.23
# Normalized: r0:DSETVAR1
#
DISCID=dd12460f
DTITLE=Various Artist - Blues Story - Vol. 10 - Concert Vol. 1
DYEAR=1900
DGENRE=
TTITLE0=Jimmy Thackery - Wild Night Out
TTITLE1=Ten Years After - I'm Going Home
TTITLE2=B.B. King - The Thrill Is Gone
TTITLE3=Albert Collins - Things I Used To Do
TTITLE4=Cream - Crossroads
TTITLE5=John Mayall - Crocodile Walk
TTITLE6=Popa Chubby - Stoop Down Baby
TTITLE7=Willy DeVille - Bamboo Road
TTITLE8=Lynyrd Skynyrd - Freebird
TTITLE9=Roy Rogers and Norton Buffalo - Shake Your Money Maker
TTITLE10=Paul Personne - Loco Loco
TTITLE11=Rory Gallagher - Laundromat
TTITLE12=The Allman Brother Band - It's Not My Cross To Bear
TTITLE13=George Thoroghgood and Johnny Johnson - St Louis Blues
TTITLE14=Amos Garett - Walkin' Blues
EXTD=
EXTT0=
EXTT1=
EXTT2=
EXTT3=
EXTT4=
EXTT5=
EXTT6=
EXTT7=
EXTT8=
EXTT9=
EXTT10=
EXTT11=
EXTT12=
EXTT13=
EXTT14=
PLAYORDER=
